<?xml version="1.0" standalone="no"?>
<!DOCTYPE svg PUBLIC "-//W3C//DTD SVG 20010904//EN"
 "http://www.w3.org/TR/2001/REC-SVG-20010904/DTD/svg10.dtd">
<svg version="1.0" xmlns="http://www.w3.org/2000/svg"
 width="700.000000pt" height="700.000000pt" viewBox="0 0 700.000000 700.000000"
 preserveAspectRatio="xMidYMid meet">
<metadata>
Created by potrace 1.11, written by Peter Selinger 2001-2013
</metadata>
<g transform="translate(0.000000,700.000000) scale(0.100000,-0.100000)"
fill="#000000" stroke="none">
<path d="M5775 6985 c-155 -25 -314 -92 -449 -189 -33 -24 -1142 -1124 -2462
-2445 l-2401 -2401 -14 -63 c-7 -34 -14 -64 -14 -67 -1 -3 -6 -23 -13 -45 -6
-22 -13 -51 -16 -65 -2 -14 -37 -160 -76 -325 -40 -165 -74 -309 -76 -319 -2
-10 -12 -53 -23 -95 -11 -42 -22 -87 -25 -101 -6 -33 -99 -425 -132 -558 -25
-103 -30 -125 -40 -170 -3 -13 -11 -49 -19 -80 -8 -30 -14 -57 -12 -58 1 -2
45 8 97 20 52 13 147 36 210 50 63 15 140 33 170 41 61 17 221 54 260 61 14 3
48 11 75 18 41 12 197 49 255 61 8 2 71 17 140 33 110 27 235 57 280 67 8 2
35 8 60 14 25 7 54 14 65 16 11 3 34 8 50 12 17 4 32 7 35 8 3 0 60 14 127 30
l123 29 2394 2396 c1317 1317 2407 2411 2423 2430 155 186 236 430 228 690 -7
245 -77 436 -231 631 -147 185 -354 311 -609 370 -74 17 -287 19 -380 4z"/>
</g>
</svg>
