<?xml version="1.0" standalone="no"?>
<!DOCTYPE svg PUBLIC "-//W3C//DTD SVG 20010904//EN"
 "http://www.w3.org/TR/2001/REC-SVG-20010904/DTD/svg10.dtd">
<svg version="1.0" xmlns="http://www.w3.org/2000/svg"
 width="700.000000pt" height="700.000000pt" viewBox="0 0 700.000000 700.000000"
 preserveAspectRatio="xMidYMid meet">
<metadata>
Created by potrace 1.11, written by Peter Selinger 2001-2013
</metadata>
<g transform="translate(0.000000,700.000000) scale(0.100000,-0.100000)"
fill="#000000" stroke="none">
<path d="M4959 6360 c-71 -11 -149 -42 -213 -85 -54 -36 -3366 -3343 -3366
-3360 0 -6 -52 -373 -115 -815 -63 -442 -115 -820 -115 -840 0 -44 23 -78 65
-96 30 -12 107 -3 862 106 456 65 840 123 853 129 14 5 772 758 1686 1673
1551 1554 1662 1667 1691 1728 44 94 56 143 56 245 1 112 -25 204 -84 295 -57
90 -849 882 -938 939 -109 70 -255 100 -382 81z m206 -237 c46 -14 87 -52 488
-452 294 -292 444 -450 458 -478 45 -92 42 -213 -8 -304 -13 -25 -83 -104
-154 -175 l-129 -129 -617 618 -618 617 129 129 c73 73 151 141 178 156 84 46
166 51 273 18z m-115 -1078 l615 -615 -78 -77 -77 -78 -617 617 -618 618 75
75 c41 41 77 75 80 75 3 0 282 -277 620 -615z m-2415 -3474 c-3 -2 -152 -26
-333 -52 l-327 -48 -252 252 -252 252 44 310 c25 171 48 321 51 334 5 22 62
-32 539 -509 294 -294 532 -536 530 -539z m-1065 -6 c68 -68 122 -126 120
-129 -7 -6 -292 -47 -297 -43 -2 2 6 66 17 141 11 75 20 141 20 147 0 20 20 4
140 -116z"/>
<path d="M5082 5814 c-25 -17 -52 -64 -52 -89 0 -63 72 -122 134 -111 89 17
120 140 49 196 -31 24 -99 27 -131 4z"/>
</g>
</svg>
